<?xml version="1.0" standalone="no"?>
<!DOCTYPE svg PUBLIC "-//W3C//DTD SVG 20010904//EN"
 "http://www.w3.org/TR/2001/REC-SVG-20010904/DTD/svg10.dtd">
<svg version="1.0" xmlns="http://www.w3.org/2000/svg"
 width="500.000000pt" height="500.000000pt" viewBox="0 0 500.000000 500.000000"
 preserveAspectRatio="xMidYMid meet">

<g transform="translate(0.000000,500.000000) scale(0.100000,-0.100000)"
fill="#000000" stroke="none">
<path d="M2205 4273 c-269 -275 -283 -294 -251 -338 13 -18 28 -20 164 -23
l150 -3 4 -252 3 -252 32 -65 c17 -36 57 -93 87 -127 l56 -61 0 -113 c0 -111
0 -112 -20 -94 -11 10 -20 22 -20 27 0 5 -13 29 -30 53 -16 24 -30 46 -30 48
0 3 -19 38 -42 79 -52 90 -161 200 -248 251 -119 69 -202 89 -388 95 -176 5
-192 1 -192 -47 0 -43 63 -181 122 -272 126 -190 293 -300 527 -345 42 -8 120
-17 175 -21 86 -5 101 -9 123 -31 18 -18 23 -33 21 -60 l-3 -37 -237 -3 -237
-2 -20 -27 c-17 -21 -21 -40 -21 -105 0 -103 16 -140 69 -164 36 -16 41 -22
41 -52 0 -61 -45 -125 -129 -186 -164 -118 -246 -231 -290 -401 -40 -150 30
-512 150 -782 11 -24 19 -45 19 -48 0 -2 11 -28 24 -57 13 -29 47 -107 76
-173 64 -150 84 -180 137 -205 41 -19 63 -20 478 -20 487 0 472 -2 524 70 16
22 48 84 71 137 23 54 53 122 66 151 13 29 24 55 24 57 0 2 14 34 30 70 17 36
30 71 30 78 0 7 4 17 8 22 10 11 41 109 77 240 86 315 73 485 -51 676 -50 76
-91 115 -194 187 -86 59 -122 107 -128 172 -4 44 -3 46 32 58 46 17 64 45 75
113 12 74 -1 148 -29 171 -20 16 -45 18 -250 18 -199 0 -229 2 -234 16 -13 34
-5 66 22 89 23 20 38 24 93 25 150 0 358 53 469 117 74 43 213 176 255 243 42
67 91 168 111 228 13 42 14 58 6 78 -11 24 -13 24 -142 24 -79 0 -161 -6 -208
-16 -107 -21 -242 -89 -319 -159 -58 -52 -171 -204 -235 -315 -57 -98 -57 -98
-58 30 l0 116 55 64 c64 74 100 139 115 204 5 25 10 144 10 265 l1 220 150 3
c137 3 152 5 165 23 34 46 21 63 -256 340 -232 233 -268 265 -295 264 -26 0
-65 -36 -290 -266z m569 -253 c-126 -5 -143 -14 -145 -69 0 -14 -1 -134 -2
-266 l-2 -240 -29 -53 c-41 -73 -87 -125 -106 -117 -25 10 -83 94 -102 148
-15 44 -17 89 -18 302 0 210 -3 254 -16 273 -14 21 -23 22 -131 22 l-115 0 53
55 c30 31 117 120 194 198 l140 143 197 -196 197 -195 -115 -5z m-938 -640
c185 -44 291 -131 407 -331 37 -64 67 -119 67 -123 0 -16 -152 2 -270 32 -36
9 -111 41 -120 51 -3 4 -27 21 -55 40 -88 61 -184 175 -229 276 -10 22 -23 48
-28 58 -8 15 -2 17 69 17 43 0 115 -9 159 -20z m1538 -37 c-81 -183 -255 -344
-414 -385 -104 -27 -171 -38 -223 -38 l-58 0 27 48 c59 102 145 230 171 253
62 55 141 107 193 128 63 25 188 48 272 50 l57 1 -25 -57z m-414 -813 l0 -50
-460 0 -460 0 0 50 0 50 460 0 460 0 0 -50z m-99 -215 c11 -104 52 -166 159
-240 138 -97 198 -170 245 -301 27 -75 34 -194 16 -277 -5 -23 -15 -69 -21
-102 -7 -33 -21 -87 -31 -120 -11 -33 -24 -76 -30 -95 -6 -19 -14 -44 -19 -55
-4 -11 -25 -63 -46 -115 -20 -52 -74 -174 -120 -270 l-82 -175 -424 -3 c-395
-2 -426 -1 -440 15 -19 21 -177 356 -215 453 -14 36 -29 74 -33 85 -55 129
-110 386 -110 510 0 81 12 128 53 215 38 80 97 144 196 214 42 30 88 67 103
82 36 39 78 125 78 160 0 16 3 39 6 52 l6 22 352 -2 351 -3 6 -50z"/>
</g>
</svg>
